<?xml version="1.0" standalone="no"?>
<!DOCTYPE svg PUBLIC "-//W3C//DTD SVG 1.1//EN" "http://www.w3.org/Graphics/SVG/1.1/DTD/svg11.dtd">
<svg t="1630122551989" class="icon" viewBox="0 0 1024 1024" version="1.1" xmlns="http://www.w3.org/2000/svg" p-id="1189" xmlns:xlink="http://www.w3.org/1999/xlink" width="200" height="200">
  <defs>
    <style type="text/css"></style>
  </defs>
  <path d="M512 512m-512 0a512 512 0 1 0 1024 0 512 512 0 1 0-1024 0Z" fill="#333333" p-id="1190"></path>
  <path d="M508.061538 736.492308L334.769231 827.076923c-19.692308 11.815385-43.323077 3.938462-55.138462-15.753846-3.938462-7.876923-3.938462-15.753846-3.938461-23.630769l31.507692-196.923077-141.784615-137.846154c-15.753846-15.753846-15.753846-39.384615 0-55.138462 7.876923-7.876923 15.753846-11.815385 23.630769-11.815384l196.923077-27.569231L472.615385 181.169231c7.876923-19.692308 31.507692-27.569231 51.2-19.692308 7.876923 3.938462 15.753846 11.815385 19.692307 19.692308L630.153846 358.4l196.923077 27.569231c19.692308 3.938462 35.446154 23.630769 31.507692 43.323077 0 7.876923-3.938462 15.753846-11.815384 23.630769L708.923077 590.769231l31.507692 196.923077c3.938462 19.692308-11.815385 43.323077-31.507692 47.261538-7.876923 0-15.753846 0-23.630769-3.938461l-177.23077-94.523077z" fill="#FFFFFF" p-id="1191"></path>
</svg>